<svg width="84" height="31" viewBox="0 0 84 31" fill="none" xmlns="http://www.w3.org/2000/svg">
<path d="M6.104 30.668C5.03733 30.668 4.152 30.4013 3.448 29.868C2.744 29.356 2.392 28.6413 2.392 27.724C2.392 25.2707 4.89867 23.66 9.912 22.892C10.104 22.188 10.2533 21.5053 10.36 20.844C9.37867 21.4413 8.344 21.74 7.256 21.74C5.272 21.74 3.672 21.0253 2.456 19.596C1.24 18.1453 0.632 16.268 0.632 13.964C0.632 11.66 1.08 9.52667 1.976 7.564C2.872 5.60133 4.152 3.98 5.816 2.7C7.50133 1.42 9.28267 0.779999 11.16 0.779999C13.0587 0.779999 14.6053 1.24933 15.8 2.188C17.016 3.10533 17.624 4.27867 17.624 5.708C17.624 6.56133 17.4747 7.25467 17.176 7.788C17.0053 7.80933 16.7707 7.82 16.472 7.82C14.8293 7.82 13.592 7.55333 12.76 7.02L12.792 3.564C12.28 3.116 11.608 2.892 10.776 2.892C9.47467 2.892 8.32267 3.89467 7.32 5.9C6.31733 7.884 5.816 10.3053 5.816 13.164C5.816 15.0627 6.12533 16.46 6.744 17.356C7.36267 18.252 8.09867 18.7 8.952 18.7C10.232 18.7 11.384 18.06 12.408 16.78C13.432 15.5 14.168 13.9747 14.616 12.204L16.344 12.492C15.5333 18.5933 14.3067 23.148 12.664 26.156C11.0213 29.164 8.83467 30.668 6.104 30.668ZM4.472 27.628C4.472 28.2253 4.97333 28.524 5.976 28.524C6.488 28.524 7.096 28.204 7.8 27.564C8.504 26.9453 9.03733 26.1347 9.4 25.132C8.16267 25.2387 7.032 25.516 6.008 25.964C4.984 26.4333 4.472 26.988 4.472 27.628ZM17.9883 17.964C17.9883 15.2973 18.7883 13.196 20.3883 11.66C22.0096 10.1027 23.8443 9.324 25.8923 9.324C27.1509 9.324 28.1856 9.63333 28.9963 10.252C29.8069 10.8707 30.2123 11.7027 30.2123 12.748C30.2123 13.772 29.9456 14.636 29.4123 15.34C28.9003 16.044 28.2709 16.588 27.5243 16.972C26.0096 17.7187 24.6229 18.188 23.3643 18.38L22.5963 18.476C22.7456 20.4813 23.5669 21.484 25.0603 21.484C25.5723 21.484 26.1163 21.356 26.6923 21.1C27.2683 20.844 27.7163 20.588 28.0363 20.332L28.5163 19.948L29.2843 20.972C29.1136 21.2067 28.7723 21.516 28.2603 21.9C27.7483 22.284 27.2683 22.604 26.8203 22.86C25.5829 23.5427 24.2283 23.884 22.7563 23.884C21.2843 23.884 20.1216 23.3613 19.2682 22.316C18.4149 21.2707 17.9883 19.82 17.9883 17.964ZM22.5643 16.908C23.6523 16.716 24.5163 16.2573 25.1562 15.532C25.7963 14.8067 26.1163 13.868 26.1163 12.716C26.1163 11.564 25.7749 10.988 25.0923 10.988C24.2816 10.988 23.6523 11.6813 23.2043 13.068C22.7776 14.4333 22.5643 15.7133 22.5643 16.908ZM35.3775 23.884C33.9055 23.884 32.7535 23.372 31.9215 22.348C31.0895 21.3027 30.6735 19.852 30.6735 17.996C30.6735 15.628 31.3028 13.5907 32.5615 11.884C33.8415 10.1773 35.6015 9.324 37.8415 9.324L38.9935 9.388C39.3562 9.196 39.7615 9.1 40.2095 9.1C41.8948 9.1 42.7375 10.6893 42.7375 13.868C43.6122 13.8253 44.4975 13.708 45.3935 13.516L45.9055 13.388L46.0975 14.636C45.3935 14.9347 44.4442 15.2013 43.2495 15.436L42.6095 15.564C42.2042 17.804 41.3828 19.756 40.1455 21.42C38.9082 23.0627 37.3188 23.884 35.3775 23.884ZM37.1055 21.132C38.0015 21.132 38.8015 20.556 39.5055 19.404C40.2308 18.252 40.7322 17.036 41.0095 15.756C38.7268 15.756 37.5855 14.9027 37.5855 13.196C37.5855 12.5133 37.7242 11.8733 38.0015 11.276L38.1615 10.956C38.0762 10.9133 37.9695 10.892 37.8415 10.892C37.7135 10.892 37.6175 10.9133 37.5535 10.956C37.0202 11.2973 36.5188 12.0973 36.0495 13.356C35.5802 14.6147 35.3455 16.0547 35.3455 17.676C35.3455 19.98 35.9322 21.132 37.1055 21.132ZM44.1938 23.596H43.9698C43.9271 23.4253 43.9058 23.0413 43.9058 22.444C43.9058 21.8253 44.1938 20.1827 44.7698 17.516C45.3458 14.8493 45.6338 13.324 45.6338 12.94C45.6338 12.2787 45.3351 11.5533 44.7378 10.764L44.4498 10.38L44.4818 9.964C45.6338 9.644 47.4791 9.484 50.0178 9.484C50.2738 10.0387 50.4018 10.8173 50.4018 11.82C50.6364 11.436 51.1271 10.924 51.8738 10.284C52.6204 9.644 53.3884 9.324 54.1778 9.324C55.3298 9.324 55.9058 10.3267 55.9058 12.332C55.7991 12.46 55.6498 12.6307 55.4578 12.844C55.2871 13.036 54.9244 13.3133 54.3698 13.676C53.8364 14.0387 53.3138 14.2627 52.8018 14.348C52.7804 14.348 52.5991 14.06 52.2578 13.484C51.9164 12.908 51.6604 12.62 51.4898 12.62C50.9564 12.812 50.4871 13.132 50.0818 13.58C49.1004 17.996 48.6098 20.8547 48.6098 22.156C48.6098 22.6253 48.6204 22.956 48.6418 23.148C47.8951 23.4467 46.4124 23.596 44.1938 23.596ZM59.242 26.956C58.538 27.3827 58.186 27.7987 58.186 28.204C58.186 28.6093 58.41 28.812 58.858 28.812C59.3273 28.812 59.85 28.588 60.426 28.14C61.002 27.7133 61.482 27.0093 61.866 26.028C60.842 26.22 59.9673 26.5293 59.242 26.956ZM68.746 9.548C68.8313 9.63333 68.874 9.82533 68.874 10.124C68.874 10.4013 68.8527 10.7107 68.81 11.052C68.7673 11.372 68.6927 12.108 68.586 13.26C68.4793 14.412 68.3727 15.4147 68.266 16.268C67.178 25.868 64.2553 30.668 59.498 30.668C58.73 30.668 58.026 30.4653 57.386 30.06C56.7673 29.6547 56.458 29.132 56.458 28.492C56.458 27.6387 56.9807 26.86 58.026 26.156C59.0713 25.452 60.4793 24.908 62.25 24.524C62.25 24.5027 62.314 24.204 62.442 23.628C62.57 23.052 62.6553 22.5827 62.698 22.22C61.418 23.1587 60.2127 23.628 59.082 23.628C57.9727 23.628 57.0553 23.1907 56.33 22.316C55.626 21.4413 55.274 20.044 55.274 18.124C55.274 15.6067 55.8393 13.516 56.97 11.852C58.1007 10.1667 59.594 9.324 61.45 9.324C62.4953 9.324 63.53 9.58 64.554 10.092C65.642 9.708 66.8153 9.516 68.074 9.516L68.746 9.548ZM62.89 11.212C61.9727 11.212 61.2473 11.9587 60.714 13.452C60.1807 14.924 59.914 16.5667 59.914 18.38C59.914 20.172 60.3193 21.068 61.13 21.068C61.6633 21.068 62.2927 20.8653 63.018 20.46C63.6153 16.876 64.042 13.9213 64.298 11.596C63.7007 11.34 63.2313 11.212 62.89 11.212ZM74.3745 26.956C73.6705 27.3827 73.3185 27.7987 73.3185 28.204C73.3185 28.6093 73.5425 28.812 73.9905 28.812C74.4598 28.812 74.9825 28.588 75.5585 28.14C76.1345 27.7133 76.6145 27.0093 76.9985 26.028C75.9745 26.22 75.0998 26.5293 74.3745 26.956ZM72.8385 23.628C71.0465 23.628 70.1505 22.6467 70.1505 20.684C70.1505 20.2147 70.3638 18.86 70.7905 16.62C71.2172 14.38 71.4305 12.5133 71.4305 11.02C71.4305 10.7 71.3878 10.4013 71.3025 10.124C72.4545 9.676 74.0332 9.452 76.0385 9.452C76.1452 9.75067 76.1985 10.2627 76.1985 10.988C76.1985 11.7133 75.9638 13.2173 75.4945 15.5C75.0252 17.7827 74.7905 19.2547 74.7905 19.916C74.7905 20.5773 75.0678 20.908 75.6225 20.908C76.2838 20.908 77.0838 20.5773 78.0225 19.916C78.1292 18.6573 78.5558 15.34 79.3025 9.964C80.0492 9.66533 81.3932 9.516 83.3345 9.516H83.9425C83.5372 11.116 83.1425 13.42 82.7585 16.428C82.3745 19.436 82.0652 21.5267 81.8305 22.7C81.3825 25.0467 80.5505 26.956 79.3345 28.428C78.1398 29.9213 76.5718 30.668 74.6305 30.668C73.8625 30.668 73.1585 30.4653 72.5185 30.06C71.8998 29.6547 71.5905 29.132 71.5905 28.492C71.5905 27.6387 72.1132 26.86 73.1585 26.156C74.2038 25.452 75.6118 24.908 77.3825 24.524C77.5745 23.5853 77.7238 22.6787 77.8305 21.804C76.1025 23.02 74.4385 23.628 72.8385 23.628Z" fill="white"/>
</svg>
