<svg width="25" height="25" viewBox="0 0 25 25" fill="none" xmlns="http://www.w3.org/2000/svg">
<path d="M17.9705 7.89355H7.47496C6.62527 7.89355 5.93646 8.58236 5.93646 9.43205V13.3536C5.93646 14.2032 6.62527 14.8921 7.47496 14.8921H17.9705C18.8202 14.8921 19.509 14.2032 19.509 13.3536V9.43205C19.509 8.58236 18.8202 7.89355 17.9705 7.89355Z" stroke="#050505" stroke-linecap="round" stroke-linejoin="round"/>
<path d="M18.2815 5.17285C18.4345 5.17279 18.5861 5.20289 18.7276 5.26144C18.869 5.31998 18.9975 5.40583 19.1058 5.51407C19.214 5.62231 19.2998 5.75082 19.3584 5.89226C19.4169 6.03369 19.447 6.18528 19.447 6.33835V6.55335C19.447 7.04665 19.6429 7.51975 19.9918 7.86857C20.3406 8.21739 20.8137 8.41335 21.307 8.41335C21.46 8.41329 21.6116 8.44339 21.7531 8.50194C21.8945 8.56048 22.023 8.64633 22.1313 8.75457C22.2395 8.86281 22.3253 8.99132 22.3839 9.13276C22.4424 9.27419 22.4725 9.42578 22.4725 9.57885V13.1579C22.4725 13.3109 22.4425 13.4624 22.3839 13.6038C22.3254 13.7452 22.2396 13.8737 22.1314 13.982C22.0232 14.0902 21.8948 14.176 21.7534 14.2346C21.612 14.2932 21.4605 14.3234 21.3075 14.3234C20.8142 14.3234 20.3411 14.5193 19.9923 14.8681C19.6434 15.217 19.4475 15.69 19.4475 16.1834V16.3984C19.4475 16.5515 19.4174 16.7031 19.3588 16.8446C19.3003 16.986 19.2144 17.1146 19.1061 17.2228C18.9978 17.3311 18.8692 17.4169 18.7277 17.4754C18.5862 17.5339 18.4346 17.564 18.2815 17.5639H8.92147L7.22497 19.6199C6.81147 20.1209 5.99797 19.8284 5.99797 19.1789V16.1839C5.99797 15.9396 5.94986 15.6977 5.85639 15.4721C5.76292 15.2464 5.62591 15.0414 5.45319 14.8686C5.28048 14.6959 5.07543 14.5589 4.84976 14.4654C4.6241 14.372 4.38223 14.3239 4.13797 14.3239C3.98486 14.3239 3.83323 14.2938 3.69176 14.2352C3.5503 14.1766 3.42176 14.0907 3.31352 13.9825C3.20527 13.8742 3.11943 13.7456 3.06091 13.6041C3.0024 13.4626 2.97234 13.311 2.97247 13.1579V9.57885C2.97241 9.42582 3.00249 9.27427 3.06101 9.13287C3.11953 8.99147 3.20533 8.86298 3.31352 8.75475C3.4217 8.64652 3.55015 8.56066 3.69153 8.50208C3.83291 8.4435 3.98444 8.41335 4.13747 8.41335C4.63078 8.41335 5.10387 8.21739 5.45269 7.86857C5.80151 7.51975 5.99747 7.04665 5.99747 6.55335V6.33835C5.99747 6.18528 6.02764 6.0337 6.08625 5.89229C6.14486 5.75088 6.23076 5.62241 6.33905 5.51422C6.44733 5.40603 6.57588 5.32023 6.71734 5.26174C6.8588 5.20326 7.0104 5.17322 7.16347 5.17335L18.2815 5.17285Z" stroke="#050505" stroke-linecap="round" stroke-linejoin="round"/>
<path d="M8.57098 10.5578C8.57098 10.2294 8.70147 9.91435 8.93373 9.68208C9.166 9.44982 9.48101 9.31934 9.80948 9.31934C10.138 9.31934 10.453 9.44982 10.6852 9.68208C10.9175 9.91435 11.048 10.2294 11.048 10.5578V11.9708C11.048 12.2993 10.9175 12.6143 10.6852 12.8466C10.453 13.0789 10.138 13.2093 9.80948 13.2093C9.48101 13.2093 9.166 13.0789 8.93373 12.8466C8.70147 12.6143 8.57098 12.2993 8.57098 11.9708V10.5578ZM14.397 10.5578C14.397 10.2294 14.5275 9.91435 14.7597 9.68208C14.992 9.44982 15.307 9.31934 15.6355 9.31934C15.964 9.31934 16.279 9.44982 16.5112 9.68208C16.7435 9.91435 16.874 10.2294 16.874 10.5578V11.9708C16.874 12.2993 16.7435 12.6143 16.5112 12.8466C16.279 13.0789 15.964 13.2093 15.6355 13.2093C15.307 13.2093 14.992 13.0789 14.7597 12.8466C14.5275 12.6143 14.397 12.2993 14.397 11.9708V10.5578Z" stroke="#050505" stroke-linecap="round" stroke-linejoin="round"/>
</svg>
